<svg data-v-70c840ab="" width="116" height="70" viewBox="0 0 116 70" fill="none" xmlns="http://www.w3.org/2000/svg"><g data-v-70c840ab="" clip-path="url(#clip0)"><path data-v-70c840ab="" d="M45.2928 46.5282V31.0394C45.2928 30.8559 45.4374 30.7412 45.6687 30.7412H51.4914C52.3317 30.7412 52.8251 30.7412 53.1432 30.7641C58.1255 31.1541 59.6616 34.7392 57.9809 37.2449C57.7496 37.589 57.8074 37.9344 58.1833 38.1867C62.0362 40.7613 60.6176 46.8278 53.9546 46.8278H45.6687C45.4374 46.8264 45.2928 46.7117 45.2928 46.5282ZM49.5794 37.0371H51.1734C51.9848 37.0371 52.5052 37.0371 52.7962 37.0141C55.9822 36.716 55.8087 33.2914 52.3336 33.2914H49.5812C49.0879 33.2914 48.7698 33.5437 48.7698 33.935V36.3934C48.7698 36.7834 49.0879 37.0371 49.5794 37.0371ZM48.7698 43.6096C48.7698 44.001 49.0879 44.2533 49.5812 44.2533H53.9564C57.6358 44.2533 57.6358 39.6346 53.9564 39.6346H49.5812C49.0879 39.6346 48.7698 39.8869 48.7698 40.2782V43.6096Z" fill="#241811"></path><path data-v-70c840ab="" d="M62.2116 46.5512L71.3667 30.7184C71.4245 30.6037 71.6269 30.512 71.8004 30.512C71.9739 30.512 72.1474 30.6037 72.2052 30.7184L81.3603 46.5512C81.447 46.7118 81.3603 46.8265 81.129 46.8265H78.2899C78.0586 46.8265 77.8273 46.7118 77.7387 46.5512L76.9273 45.1493C76.7249 44.8038 76.2605 44.5745 75.7689 44.5745H69.9173C69.686 44.5745 69.5993 44.4598 69.686 44.2992L70.8733 42.2766C70.9601 42.116 71.1625 42.0014 71.3956 42.0014H74.2925C74.784 42.0014 74.9593 41.772 74.7551 41.4036L72.1474 36.8996C72.0317 36.7161 71.9161 36.6243 71.8004 36.6243C71.6847 36.6243 71.5691 36.7161 71.4534 36.8996L65.8331 46.5512C65.7464 46.7118 65.5151 46.8265 65.3109 46.8265H62.4429C62.2116 46.8265 62.1248 46.7118 62.2116 46.5512Z" fill="#241811"></path><path data-v-70c840ab="" d="M84.7505 46.5282V30.8544C84.7505 30.7856 84.8083 30.7397 84.8951 30.7397H90.3419C91.1533 30.7397 91.6448 30.7397 91.9936 30.7627C98.9458 31.2687 99.8439 37.6334 94.8037 39.7707C94.37 39.9542 94.2526 40.2538 94.5146 40.552L99.8457 46.5726C99.9903 46.7332 99.9036 46.8249 99.6722 46.8249H96.282C96.0507 46.8249 95.8194 46.7332 95.673 46.5726L90.4864 40.6437C90.3708 40.5061 90.2551 40.2997 90.2551 40.1147V38.1165C90.2551 37.933 90.3997 37.8183 90.631 37.8183H91.1515C95.5555 37.8183 95.5266 33.3372 91.1515 33.3372H89.0371C88.5437 33.3372 88.2257 33.6125 88.2257 34.0038V46.5282C88.2257 46.7116 88.0811 46.8263 87.8498 46.8263H85.1264C84.8951 46.8263 84.7505 46.7116 84.7505 46.5282Z" fill="#241811"></path><path data-v-70c840ab="" d="M18.9589 8.35596L22.4828 20.6768L17.8131 22.0988L18.9589 8.35596Z" stroke="#241811" stroke-width="0.5" stroke-miterlimit="10" stroke-linecap="round" stroke-linejoin="round"></path><path data-v-70c840ab="" d="M22.4828 20.6768L19.51 34.5701L17.8131 22.0988L22.4828 20.6768Z" stroke="#241811" stroke-width="0.5" stroke-miterlimit="10" stroke-linecap="round" stroke-linejoin="round"></path><path data-v-70c840ab="" d="M17.8131 22.0988L20.9973 27.6234L22.4828 20.6768L17.8131 22.0988Z" stroke="#241811" stroke-width="0.5" stroke-miterlimit="10" stroke-linecap="round" stroke-linejoin="round"></path><path data-v-70c840ab="" d="M20.9974 27.6234L22.4486 27.8628L22.4829 20.6768L20.9974 27.6234Z" stroke="#241811" stroke-width="0.5" stroke-miterlimit="10" stroke-linecap="round" stroke-linejoin="round"></path><path data-v-70c840ab="" d="M20.9974 27.6233L22.4486 27.8627L19.5101 34.57L20.9974 27.6233Z" stroke="#241811" stroke-width="0.5" stroke-miterlimit="10" stroke-linecap="round" stroke-linejoin="round"></path><path data-v-70c840ab="" d="M23.1768 30.9921L20.5691 32.1532L22.4485 27.8628L23.1768 30.9921Z" stroke="#241811" stroke-width="0.5" stroke-miterlimit="10" stroke-linecap="round" stroke-linejoin="round"></path><path data-v-70c840ab="" d="M26.2038 34.9598L20.5691 32.1531L23.1768 30.9919L26.2038 34.9598Z" stroke="#241811" stroke-width="0.5" stroke-miterlimit="10" stroke-linecap="round" stroke-linejoin="round"></path><path data-v-70c840ab="" d="M19.5101 34.5701L6.21118 34.6202L17.571 39.4568L19.5101 34.5701Z" stroke="#241811" stroke-width="0.5" stroke-miterlimit="10" stroke-linecap="round" stroke-linejoin="round"></path><path data-v-70c840ab="" d="M20.5691 32.1531L19.5101 34.5699L26.2039 34.9598L20.5691 32.1531Z" stroke="#241811" stroke-width="0.5" stroke-miterlimit="10" stroke-linecap="round" stroke-linejoin="round"></path><path data-v-70c840ab="" d="M17.8131 22.0986L4.104 23.8303L19.5101 34.57L17.8131 22.0986Z" stroke="#241811" stroke-width="0.5" stroke-miterlimit="10" stroke-linecap="round" stroke-linejoin="round"></path><path data-v-70c840ab="" d="M18.9589 8.35596L2.90405 14.3823L17.8131 22.0988L18.9589 8.35596Z" stroke="#241811" stroke-width="0.5" stroke-miterlimit="10" stroke-linecap="round" stroke-linejoin="round"></path><path data-v-70c840ab="" d="M4.10401 23.8304L2.90405 14.3823L17.8131 22.0988L4.10401 23.8304Z" stroke="#241811" stroke-width="0.5" stroke-miterlimit="10" stroke-linecap="round" stroke-linejoin="round"></path><path data-v-70c840ab="" d="M26.2039 34.96L17.571 39.4568L19.5101 34.5701L26.2039 34.96Z" stroke="#241811" stroke-width="0.5" stroke-miterlimit="10" stroke-linecap="round" stroke-linejoin="round"></path><path data-v-70c840ab="" d="M26.2039 34.96L30.0314 38.6254L24.6714 40.3814L26.2039 34.96Z" stroke="#241811" stroke-width="0.5" stroke-miterlimit="10" stroke-linecap="round" stroke-linejoin="round"></path><path data-v-70c840ab="" d="M17.571 39.4568L24.6714 40.3814L26.2039 34.96L17.571 39.4568Z" stroke="#241811" stroke-width="0.5" stroke-miterlimit="10" stroke-linecap="round" stroke-linejoin="round"></path><path data-v-70c840ab="" d="M30.0314 38.6255L32.4566 40.8718L24.6714 40.3815L30.0314 38.6255Z" stroke="#241811" stroke-width="0.5" stroke-miterlimit="10" stroke-linecap="round" stroke-linejoin="round"></path><path data-v-70c840ab="" d="M24.6714 40.3813L33.1524 43.0562L32.4566 40.8716L24.6714 40.3813Z" stroke="#241811" stroke-width="0.5" stroke-miterlimit="10" stroke-linecap="round" stroke-linejoin="round"></path><path data-v-70c840ab="" d="M30.6567 45.5749L33.1524 43.0562L24.6714 40.3813L30.6567 45.5749Z" stroke="#241811" stroke-width="0.5" stroke-miterlimit="10" stroke-linecap="round" stroke-linejoin="round"></path><path data-v-70c840ab="" d="M30.6567 45.5749L17.571 39.4568L24.6714 40.3814L30.6567 45.5749Z" stroke="#241811" stroke-width="0.5" stroke-miterlimit="10" stroke-linecap="round" stroke-linejoin="round"></path><path data-v-70c840ab="" d="M17.571 39.4568L20.6197 45.9562L30.6567 45.5749L17.571 39.4568Z" stroke="#241811" stroke-width="0.5" stroke-miterlimit="10" stroke-linecap="round" stroke-linejoin="round"></path><path data-v-70c840ab="" d="M20.6198 45.9563L26.4985 47.8857L30.6567 45.575L20.6198 45.9563Z" stroke="#241811" stroke-width="0.5" stroke-miterlimit="10" stroke-linecap="round" stroke-linejoin="round"></path><path data-v-70c840ab="" d="M26.4985 47.8858L26.5021 49.4024L20.6198 45.9563L26.4985 47.8858Z" stroke="#241811" stroke-width="0.5" stroke-miterlimit="10" stroke-linecap="round" stroke-linejoin="round"></path><path data-v-70c840ab="" d="M28.6995 51.9009L26.502 49.4023L23.9232 52.318L28.6995 51.9009Z" stroke="#241811" stroke-width="0.5" stroke-miterlimit="10" stroke-linecap="round" stroke-linejoin="round"></path><path data-v-70c840ab="" d="M20.6198 45.9563L23.9232 52.3181L26.5021 49.4024L20.6198 45.9563Z" stroke="#241811" stroke-width="0.5" stroke-miterlimit="10" stroke-linecap="round" stroke-linejoin="round"></path><path data-v-70c840ab="" d="M12.0646 48.042L20.6197 45.9563L23.9232 52.3181L12.0646 48.042Z" stroke="#241811" stroke-width="0.5" stroke-miterlimit="10" stroke-linecap="round" stroke-linejoin="round"></path><path data-v-70c840ab="" d="M28.6995 51.9009L28.349 53.6655L23.9232 52.318L28.6995 51.9009Z" stroke="#241811" stroke-width="0.5" stroke-miterlimit="10" stroke-linecap="round" stroke-linejoin="round"></path><path data-v-70c840ab="" d="M21.5016 54.8798L23.9232 52.3181L28.3489 53.6656L21.5016 54.8798Z" stroke="#241811" stroke-width="0.5" stroke-miterlimit="10" stroke-linecap="round" stroke-linejoin="round"></path><path data-v-70c840ab="" d="M25.4755 55.3083L28.3489 53.6655L23.8654 54.4611L25.4755 55.3083Z" stroke="#241811" stroke-width="0.5" stroke-miterlimit="10" stroke-linecap="round" stroke-linejoin="round"></path><path data-v-70c840ab="" d="M21.5016 54.8798L23.8654 54.4612L25.4755 55.3084L21.5016 54.8798Z" stroke="#241811" stroke-width="0.5" stroke-miterlimit="10" stroke-linecap="round" stroke-linejoin="round"></path><path data-v-70c840ab="" d="M26.2689 57.5861L25.4755 55.3083L21.5016 54.8796L26.2689 57.5861Z" stroke="#241811" stroke-width="0.5" stroke-miterlimit="10" stroke-linecap="round" stroke-linejoin="round"></path><path data-v-70c840ab="" d="M25.2406 59.7049L26.2689 57.5862L15.9988 57.8084L21.2197 58.8806L25.2406 59.7049Z" stroke="#241811" stroke-width="0.5" stroke-miterlimit="10" stroke-linecap="round" stroke-linejoin="round"></path><path data-v-70c840ab="" d="M23.7099 60.7455L25.2406 59.7048L21.6498 58.968L23.7099 60.7455Z" stroke="#241811" stroke-width="0.5" stroke-miterlimit="10" stroke-linecap="round" stroke-linejoin="round"></path><path data-v-70c840ab="" d="M21.2305 61.782L23.7099 60.7456L23.2527 66.5139L21.2305 61.782Z" stroke="#241811" stroke-width="0.5" stroke-miterlimit="10" stroke-linecap="round" stroke-linejoin="round"></path><path data-v-70c840ab="" d="M23.2527 66.5139L21.2305 61.782L18.4927 61.9999L23.2527 66.5139Z" stroke="#241811" stroke-width="0.5" stroke-miterlimit="10" stroke-linecap="round" stroke-linejoin="round"></path><path data-v-70c840ab="" d="M18.4927 61.9998L8.74487 60.0803L15.4513 63.7056L18.4927 61.9998Z" stroke="#241811" stroke-width="0.5" stroke-miterlimit="10" stroke-linecap="round" stroke-linejoin="round"></path><path data-v-70c840ab="" d="M21.048 64.4224L21.5305 68.4089L23.2527 66.5138L21.048 64.4224Z" stroke="#241811" stroke-width="0.5" stroke-miterlimit="10" stroke-linecap="round" stroke-linejoin="round"></path><path data-v-70c840ab="" d="M17.139 66.0436L21.0479 64.4224L21.5305 68.4089L17.139 66.0436Z" stroke="#241811" stroke-width="0.5" stroke-miterlimit="10" stroke-linecap="round" stroke-linejoin="round"></path><path data-v-70c840ab="" d="M17.139 66.0437L18.9643 69.7306L21.5305 68.409L17.139 66.0437Z" stroke="#241811" stroke-width="0.5" stroke-miterlimit="10" stroke-linecap="round" stroke-linejoin="round"></path><path data-v-70c840ab="" d="M15.6716 69.9284L17.139 66.0437L18.9643 69.7306L15.6716 69.9284Z" stroke="#241811" stroke-width="0.5" stroke-miterlimit="10" stroke-linecap="round" stroke-linejoin="round"></path><path data-v-70c840ab="" d="M18.4926 61.9998L17.139 66.0436L21.0479 64.4223L18.4926 61.9998Z" stroke="#241811" stroke-width="0.5" stroke-miterlimit="10" stroke-linecap="round" stroke-linejoin="round"></path><path data-v-70c840ab="" d="M17.1391 66.0437L8.03284 66.5569L15.6717 69.9284L17.1391 66.0437Z" stroke="#241811" stroke-width="0.5" stroke-miterlimit="10" stroke-linecap="round" stroke-linejoin="round"></path><path data-v-70c840ab="" d="M6.95398 68.6698L8.03286 66.5569L15.6717 69.9285L6.95398 68.6698Z" stroke="#241811" stroke-width="0.5" stroke-miterlimit="10" stroke-linecap="round" stroke-linejoin="round"></path><path data-v-70c840ab="" d="M0.0905762 68.1366L8.03306 66.5569L6.95418 68.6698L0.0905762 68.1366Z" stroke="#241811" stroke-width="0.5" stroke-miterlimit="10" stroke-linecap="round" stroke-linejoin="round"></path><path data-v-70c840ab="" d="M15.4512 63.7056L17.1391 66.0436L18.4926 61.9998L15.4512 63.7056Z" stroke="#241811" stroke-width="0.5" stroke-miterlimit="10" stroke-linecap="round" stroke-linejoin="round"></path><path data-v-70c840ab="" d="M18.9589 8.3559L9.53821 0.0717773L13.8573 10.271L18.9589 8.3559Z" stroke="#241811" stroke-width="0.5" stroke-miterlimit="10" stroke-linecap="round" stroke-linejoin="round"></path><path data-v-70c840ab="" d="M115.89 33.2783H102.851C102.79 33.2783 102.741 33.2396 102.741 33.1908V30.7969C102.741 30.7482 102.79 30.7095 102.851 30.7095H115.89C115.951 30.7095 116 30.7482 116 30.7969V33.1908C116 33.2396 115.951 33.2783 115.89 33.2783Z" fill="#231710"></path><path data-v-70c840ab="" d="M115.89 40.1303H102.851C102.79 40.1303 102.741 40.0916 102.741 40.0429V37.649C102.741 37.6002 102.79 37.5615 102.851 37.5615H115.89C115.951 37.5615 116 37.6002 116 37.649V40.0429C116 40.0902 115.951 40.1303 115.89 40.1303Z" fill="#4B3013"></path><path data-v-70c840ab="" d="M115.89 46.8549H102.851C102.79 46.8549 102.741 46.8162 102.741 46.7675V44.3736C102.741 44.3248 102.79 44.2861 102.851 44.2861H115.89C115.951 44.2861 116 44.3248 116 44.3736V46.7675C116 46.8162 115.951 46.8549 115.89 46.8549Z" fill="#F6B317"></path></g><defs data-v-70c840ab=""><clipPath data-v-70c840ab="" id="clip0"><rect data-v-70c840ab="" width="116" height="70" fill="white"></rect></clipPath></defs></svg>